<svg width="246" height="54" viewBox="0 0 246 54" fill="none" xmlns="http://www.w3.org/2000/svg">
<path d="M26.3775 0.641207C27.0052 0.636285 27.0052 0.636285 27.6456 0.631263C29.0301 0.621425 30.4147 0.615587 31.7993 0.610607C32.2741 0.608572 32.749 0.606537 33.2383 0.60444C35.755 0.594027 38.2717 0.586885 40.7884 0.582202C43.3739 0.576698 45.9593 0.559543 48.5447 0.539671C50.5442 0.52654 52.5435 0.522428 54.543 0.520641C55.4951 0.518226 56.4473 0.512468 57.3994 0.503145C66.7092 0.417703 74.0401 2.04707 81.0924 8.58849C86.6502 14.5698 88.3905 21.3802 88.2745 29.2666C88.1563 32.3194 87.419 34.9142 86.1366 37.6814C85.9615 38.0728 85.7865 38.4641 85.6061 38.8674C82.3462 45.387 76.7343 50.0063 69.9024 52.3238C65.4953 53.6713 61.0026 53.5111 56.4371 53.4753C55.4669 53.4757 54.4968 53.4769 53.5266 53.4789C51.5063 53.4803 49.4862 53.4731 47.4659 53.4593C44.8933 53.4423 42.3212 53.4453 39.7486 53.4546C37.7496 53.46 35.7507 53.4554 33.7517 53.448C32.8037 53.4454 31.8558 53.4456 30.9079 53.4487C21.8118 53.4676 14.697 52.0013 7.83246 45.515C2.38297 39.7541 0.430043 33.3572 0.513022 25.5592C0.759153 18.2573 3.83418 12.125 9.1569 7.10995C14.1499 3.00183 19.9454 0.663153 26.3775 0.641207ZM20.0301 22.0415C18.4685 24.242 18.3376 26.5795 18.7245 29.1925C19.57 31.635 20.9285 33.4477 23.2187 34.6853C27.405 35.9014 31.7434 35.83 36.0632 35.8167C36.7599 35.8173 37.4566 35.8183 38.1533 35.8196C39.6041 35.821 41.0549 35.8189 42.5056 35.8142C44.3517 35.8085 46.1977 35.8118 48.0438 35.8178C49.4794 35.8214 50.915 35.8202 52.3506 35.8177C53.3579 35.8167 54.3652 35.8197 55.3724 35.8228C61.6894 35.9418 61.6894 35.9418 67.3798 33.593C69.2524 31.5377 70.0259 29.727 70.3759 26.9766C70.0572 24.3812 69.2919 22.4007 67.4764 20.4794C63.9284 17.8291 59.5006 18.3458 55.2862 18.3746C54.4171 18.3729 53.5479 18.3704 52.6787 18.3673C50.8621 18.3636 49.0457 18.369 47.2291 18.3807C44.9085 18.3949 42.5887 18.3867 40.2682 18.3717C38.4749 18.3627 36.6817 18.3656 34.8884 18.3721C34.0331 18.3737 33.1779 18.3717 32.3227 18.3659C25.4428 18.2235 25.4428 18.2235 20.0301 22.0415Z" fill="#D3D4D8"/>
<path d="M128.671 17.4481C131.529 19.8336 133.282 22.1595 133.717 25.9311C133.937 29.9442 132.933 33.1016 130.24 36.1268C127.21 38.9069 124.188 39.4532 120.143 39.3629C117.122 39.0052 114.728 37.912 112.661 35.6567C110.226 32.2568 109.211 28.9665 109.84 24.8135C110.684 21.2721 112.485 18.6259 115.598 16.7088C120.06 14.6541 124.582 14.5756 128.671 17.4481ZM117.097 22.701C115.795 24.7862 115.429 26.6473 115.848 29.0677C116.277 30.5647 116.625 31.2226 117.658 32.4383C119.487 33.3923 121.024 33.7879 123.089 33.6867C124.836 33.0933 125.785 32.5184 127.021 31.1587C127.854 28.9842 127.983 26.9936 127.583 24.6984C126.636 22.8913 125.554 21.8581 123.588 21.2029C120.052 20.9487 120.052 20.9487 117.097 22.701Z" fill="#D3D4D8"/>
<path d="M160.54 15.7101C162.517 15.7101 164.495 15.7101 166.532 15.7101C166.551 16.6429 166.569 17.5756 166.589 18.5365C166.621 19.7687 166.655 21.0008 166.688 22.2329C166.699 22.8466 166.711 23.4604 166.722 24.0928C166.854 28.5929 166.854 28.5929 168.529 32.688C170.252 33.5495 172.138 33.4354 174.022 33.1874C175.536 32.0896 175.928 31.4648 176.519 29.6919C176.594 28.625 176.643 27.5561 176.677 26.4871C176.708 25.5481 176.708 25.5481 176.74 24.5902C176.76 23.9359 176.78 23.2815 176.8 22.6074C176.821 21.9406 176.843 21.2738 176.865 20.6071C176.918 18.9748 176.969 17.3425 177.018 15.7101C177.923 15.6967 178.828 15.687 179.734 15.6789C180.238 15.6731 180.742 15.6673 181.261 15.6614C182.511 15.7101 182.511 15.7101 183.011 16.2095C183.057 16.9147 183.069 17.6222 183.067 18.3289C183.067 18.7788 183.067 19.2286 183.067 19.6921C183.065 20.181 183.062 20.67 183.059 21.1737C183.059 21.6718 183.058 22.1698 183.057 22.683C183.054 24.2807 183.048 25.8784 183.042 27.4761C183.039 28.5563 183.037 29.6366 183.035 30.7169C183.029 33.3714 183.021 36.0258 183.011 38.6802C181.198 38.6802 179.385 38.6802 177.518 38.6802C177.353 38.3506 177.188 38.0211 177.018 37.6815C176.555 37.9287 176.091 38.1759 175.614 38.4305C172.82 39.6127 169.758 39.7151 166.86 38.8167C164.251 37.6197 162.711 36.068 161.445 33.4682C160.653 30.9714 160.479 28.5588 160.491 25.9507C160.493 25.3521 160.494 24.7534 160.496 24.1367C160.5 23.5187 160.504 22.9008 160.509 22.2641C160.511 21.6346 160.513 21.005 160.515 20.3564C160.521 18.8077 160.53 17.2589 160.54 15.7101Z" fill="#D3D4D8"/>
<path d="M199.988 15.71C201.965 15.71 203.943 15.71 205.98 15.71C205.982 16.1507 205.984 16.5914 205.986 17.0455C206 18.6885 206.025 20.3305 206.056 21.9732C206.068 22.6826 206.075 23.3922 206.078 24.1017C206.083 25.1249 206.103 26.1467 206.127 27.1696C206.138 28.0914 206.138 28.0914 206.15 29.0318C206.564 31.1179 207.348 31.8639 208.976 33.1872C209.979 33.5718 209.979 33.5718 210.974 33.4993C211.293 33.5057 211.612 33.5121 211.941 33.5188C213.595 32.9864 214.368 32.0108 215.468 30.6904C215.854 29.0092 215.854 29.0092 215.821 27.1696C215.829 26.8407 215.836 26.5117 215.844 26.1727C215.865 25.1297 215.87 24.0874 215.874 23.0441C215.885 22.3338 215.898 21.6235 215.912 20.9131C215.943 19.1788 215.959 17.4446 215.967 15.71C217.945 15.71 219.922 15.71 221.959 15.71C221.959 23.2901 221.959 30.8702 221.959 38.68C220.312 38.68 218.664 38.68 216.966 38.68C216.801 38.1857 216.636 37.6913 216.467 37.182C216.086 37.4188 215.704 37.6557 215.312 37.8998C212.603 39.4749 210.038 39.4123 206.979 39.1794C204.296 38.3189 202.496 36.5266 200.987 34.1859C200.066 31.8907 199.87 29.9756 199.891 27.511C199.892 27.1716 199.893 26.8323 199.895 26.4826C199.9 25.4092 199.913 24.336 199.926 23.2626C199.931 22.5305 199.935 21.7984 199.939 21.0663C199.95 19.2808 199.967 17.4954 199.988 15.71Z" fill="#D3D4D8"/>
<path d="M243.931 16.7088C244.178 17.4503 244.178 17.4503 244.431 18.2069C243.933 19.1178 243.933 19.1178 243.213 20.0482C242.977 20.3591 242.741 20.67 242.497 20.9903C242.311 21.2253 242.125 21.4602 241.934 21.7023C241.542 21.5375 241.151 21.3727 240.748 21.2029C238.442 20.5667 236.32 20.6191 233.944 20.7036C233.779 21.3627 233.615 22.0219 233.445 22.701C233.951 22.8581 234.457 23.0151 234.978 23.1769C235.653 23.3926 236.328 23.6084 237.003 23.8245C237.335 23.9269 237.667 24.0292 238.009 24.1347C240.968 25.092 243.857 26.3562 245.429 29.1925C245.82 31.3466 245.919 33.6425 244.973 35.6568C243.011 38.1749 240.6 39.1674 237.533 39.5852C233.03 39.9021 229.739 38.5273 225.955 36.1834C226.578 34.456 227.29 33.114 228.451 31.6893C229.821 32.002 231.06 32.4239 232.352 32.9689C234.797 33.9037 236.934 34.0218 239.437 33.1873C239.602 32.693 239.767 32.1986 239.936 31.6893C238.277 29.5597 235.711 29.3907 233.217 28.7732C230.604 27.9176 228.902 26.9293 227.453 24.5736C226.842 22.2821 226.862 20.821 227.952 18.7062C232.235 13.6269 238.374 13.7886 243.931 16.7088Z" fill="#D3D4D8"/>
<path d="M157.044 17.7074C156.133 19.6663 154.956 21.072 153.549 22.7009C153.127 22.5361 152.705 22.3713 152.269 22.2015C149.856 21.4994 147.969 21.2771 145.653 22.3576C144.338 23.372 143.631 24.1724 143.412 25.8491C143.344 29.3036 143.344 29.3036 145.06 32.1885C147.929 33.6228 150.304 33.0736 153.268 32.1573C153.69 32.0028 154.113 31.8483 154.548 31.6892C155.165 32.4532 155.783 33.2171 156.401 33.9811C157.028 34.7515 157.028 34.7515 158.043 35.1846C158.043 35.5142 158.043 35.8438 158.043 36.1833C154.878 38.7719 151.629 39.9286 147.557 39.6788C144.327 39.1428 141.814 38.1398 139.567 35.684C137.027 32.0795 136.421 28.54 137.071 24.1989C138.047 20.9434 139.675 18.6408 142.517 16.7692C147.344 14.1844 152.456 15.0237 157.044 17.7074Z" fill="#D3D4D8"/>
<path d="M188.503 3.72583C190.481 3.72583 192.458 3.72583 194.496 3.72583C194.496 15.2608 194.496 26.7958 194.496 38.6803C192.518 38.6803 190.541 38.6803 188.503 38.6803C188.503 27.1453 188.503 15.6103 188.503 3.72583Z" fill="#D3D4D8"/>
</svg>
