<svg width="147" height="54" viewBox="0 0 147 54" fill="none" xmlns="http://www.w3.org/2000/svg">
<path d="M44.0846 0.5C45.4936 0.5 46.9026 0.5 48.3543 0.5C48.8609 1.76666 48.984 2.33231 48.9236 3.63112C49.1114 3.63112 49.2993 3.63112 49.4929 3.63112C49.5705 4.023 49.5705 4.023 49.6496 4.4228C50.0741 6.62817 50.0741 6.62817 50.7738 8.75477C51.1962 9.77572 51.4077 10.804 51.6277 11.8859C51.9348 13.3938 52.343 14.7292 52.9086 16.1556C53.3215 17.491 53.5481 18.7363 53.4779 20.1407C53.6658 20.1407 53.8537 20.1407 54.0472 20.1407C54.1894 21.8821 53.8335 22.7096 52.9086 24.1257C52.7208 24.1257 52.5329 24.1257 52.3393 24.1257C52.31 24.2784 52.2806 24.431 52.2504 24.5883C52.0032 25.4422 51.6117 26.186 51.2007 26.9722C51.4825 27.3949 51.4825 27.3949 51.77 27.8261C51.77 28.1079 51.77 28.3897 51.77 28.6801C51.9579 28.6801 52.1458 28.6801 52.3393 28.6801C53.4779 30.5659 53.4779 30.5659 53.4779 31.5266C53.6658 31.5266 53.8537 31.5266 54.0472 31.5266C54.1416 33.0054 53.9066 34.0781 53.4023 35.4671C53.1423 36.2306 53.011 36.9901 52.9086 37.7888C52.7208 37.7888 52.5329 37.7888 52.3393 37.7888C52.3569 38.0178 52.3746 38.2467 52.3927 38.4826C52.3365 39.5505 52.0865 40.3168 51.7289 41.3124C51.4492 42.1694 51.2526 43.0285 51.0584 43.9087C50.7738 45.1896 50.429 46.405 49.9921 47.6403C49.6279 48.7953 49.3889 49.9792 49.1359 51.1628C48.9378 51.9636 48.6806 52.6881 48.3543 53.4444C47.8029 53.4598 47.2513 53.4708 46.6998 53.48C46.3926 53.4866 46.0855 53.4932 45.7691 53.5C44.9385 53.4444 44.9385 53.4444 44.0846 52.8751C43.46 52.7107 42.8306 52.5641 42.1988 52.4304C40.4129 52.0499 40.4129 52.0499 40.0995 51.7365C39.6768 51.6837 39.6768 51.6837 39.2456 51.6298C38.434 51.5248 37.7204 51.3368 36.9506 51.0605C35.8312 50.6663 34.7152 50.4087 33.5526 50.171C32.2079 49.8945 30.9353 49.5748 29.6498 49.0958C28.9712 48.8647 28.9712 48.8647 28.1332 48.7466C25.8338 48.3466 25.8338 48.3466 25.0588 47.389C24.5112 46.3066 24.1457 45.2314 23.8746 44.051C23.6867 44.051 23.4989 44.051 23.3053 44.051C23.1174 43.6753 22.9296 43.2996 22.736 42.9125C22.3621 42.9191 21.9882 42.9257 21.603 42.9325C21.1089 42.9378 20.6149 42.943 20.1208 42.948C19.8748 42.9528 19.6288 42.9576 19.3753 42.9625C17.4379 42.9773 16.3363 42.7986 14.9115 41.4236C14.5465 41.0503 14.1837 40.6748 13.823 40.2973C12.7701 39.2075 11.7243 38.1334 10.5707 37.1495C8.95252 35.7578 7.47555 34.2186 5.9774 32.7007C5.39188 32.1076 4.80541 31.5155 4.21837 30.9239C3.83316 30.5337 3.83316 30.5337 3.44018 30.1357C2.86382 29.5256 2.86382 29.5256 2.24141 29.2494C2.24141 29.0615 2.24141 28.8736 2.24141 28.6801C2.05354 28.6801 1.86567 28.6801 1.67211 28.6801C1.67211 28.4922 1.67211 28.3044 1.67211 28.1108C1.39031 28.0169 1.10851 27.9229 0.818169 27.8261C0.675845 26.9544 0.675845 26.9544 0.818169 25.8336C1.28958 25.2803 1.81007 24.8702 2.38262 24.4226C3.393 23.5982 4.27742 22.663 5.17829 21.7221C5.51753 21.3745 5.87099 21.0409 6.22647 20.71C6.41434 20.71 6.6022 20.71 6.79576 20.71C6.79576 20.5221 6.79576 20.3342 6.79576 20.1407C6.98363 20.1407 7.1715 20.1407 7.36506 20.1407C7.36506 19.9528 7.36506 19.7649 7.36506 19.5714C7.55292 19.5714 7.74079 19.5714 7.93435 19.5714C7.93435 19.3835 7.93435 19.1956 7.93435 19.0021C8.12222 19.0021 8.31009 19.0021 8.50365 19.0021C8.50365 18.8142 8.50365 18.6263 8.50365 18.4328C8.69151 18.4328 8.87938 18.4328 9.07294 18.4328C9.07294 18.2449 9.07294 18.057 9.07294 17.8635C9.26081 17.8635 9.44868 17.8635 9.64224 17.8635C9.64224 17.6756 9.64224 17.4878 9.64224 17.2942C9.8301 17.2942 10.018 17.2942 10.2115 17.2942C10.2115 17.1063 10.2115 16.9185 10.2115 16.7249C10.5796 16.3635 10.5796 16.3635 11.1188 15.9243C11.9257 15.2669 12.6017 14.6104 13.2337 13.7884C15.3297 11.1905 15.3297 11.1905 16.9694 10.888C18.1374 10.8233 19.2926 10.845 20.4612 10.8809C22.153 10.9317 22.153 10.9317 23.5366 10.0457C23.9634 9.23209 24.2533 8.51307 24.4439 7.61618C24.6318 7.61618 24.8196 7.61618 25.0132 7.61618C25.0367 7.4518 25.0602 7.28742 25.0844 7.11805C25.3719 6.2555 25.7311 5.91588 26.4364 5.339C27.4093 5.05102 27.4093 5.05102 28.4823 4.85866C29.6864 4.73401 29.6864 4.73401 30.7061 4.20042C30.9879 4.16519 31.2697 4.12997 31.5601 4.09367C32.3759 3.98798 33.0978 3.79894 33.8728 3.52438C35.2046 3.05949 36.5509 2.74938 37.9268 2.44361C39.302 2.13012 40.6679 1.78244 42.0337 1.43073C43.4546 1.06929 43.4546 1.06929 44.0846 1.06929C44.0846 0.881427 44.0846 0.69356 44.0846 0.5ZM34.9936 9.94673C32.6929 10.6147 30.3775 11.1637 28.0343 11.6615C27.7851 11.7157 27.536 11.77 27.2793 11.8259C27.0614 11.8719 26.8436 11.918 26.6192 11.9655C24.24 12.6141 22.9832 13.4289 21.2805 15.1949C21.071 15.4065 20.8614 15.6181 20.6455 15.8361C19.9809 16.5086 19.3214 17.1859 18.662 17.8635C18.2137 18.319 17.765 18.7741 17.316 19.2289C16.3299 20.229 15.3469 21.2322 14.3667 22.2381C13.9335 22.6805 13.4958 23.1186 13.058 23.5564C18.8819 23.5564 24.7058 23.5564 30.7061 23.5564C31.9153 21.8228 31.9153 21.8228 31.8447 20.71C32.0326 20.71 32.2205 20.71 32.414 20.71C32.414 20.3342 32.414 19.9585 32.414 19.5714C32.6019 19.5714 32.7898 19.5714 32.9833 19.5714C33.1712 19.2602 33.3591 18.9491 33.5526 18.6285C33.7111 18.3659 33.7111 18.3659 33.8728 18.0981C34.1835 17.5465 34.1835 17.5465 34.1219 16.7249C34.3098 16.7249 34.4976 16.7249 34.6912 16.7249C34.8791 16.4137 35.0669 16.1026 35.2605 15.782C35.419 15.5195 35.419 15.5195 35.5807 15.2516C35.8913 14.7 35.8913 14.7 35.8298 13.8784C36.0177 13.8784 36.2055 13.8784 36.3991 13.8784C36.587 13.5673 36.7748 13.2561 36.9684 12.9355C37.0741 12.7605 37.1797 12.5855 37.2886 12.4052C37.5992 11.8536 37.5992 11.8536 37.5377 11.032C37.7255 11.032 37.9134 11.032 38.107 11.032C38.2948 10.4684 38.4827 9.90475 38.6763 9.32407C37.3665 9.2347 36.2334 9.57521 34.9936 9.94673ZM44.3692 12.1705C43.721 12.9719 43.721 12.9719 43.7999 13.8784C43.612 13.8784 43.4242 13.8784 43.2306 13.8784C43.0395 14.2454 42.85 14.6132 42.6613 14.9814C42.5028 15.2886 42.5028 15.2886 42.3411 15.6019C42.0531 16.1409 42.0531 16.1409 42.092 16.7249C41.9042 16.7249 41.7163 16.7249 41.5227 16.7249C41.5227 17.1006 41.5227 17.4764 41.5227 17.8635C41.3349 17.8635 41.147 17.8635 40.9534 17.8635C40.7656 18.1746 40.5777 18.4858 40.3842 18.8064C40.2785 18.9814 40.1728 19.1564 40.0639 19.3368C39.7533 19.8884 39.7533 19.8884 39.8149 20.71C39.627 20.71 39.4391 20.71 39.2456 20.71C39.0577 21.0211 38.8698 21.3323 38.6763 21.6529C38.5706 21.8279 38.4649 22.0029 38.356 22.1832C38.0454 22.7348 38.0454 22.7348 38.107 23.5564C37.9191 23.5564 37.7312 23.5564 37.5377 23.5564C37.3498 23.8676 37.1619 24.1787 36.9684 24.4993C36.8627 24.6744 36.757 24.8494 36.6482 25.0297C36.3375 25.5813 36.3375 25.5813 36.3991 26.4029C36.2112 26.4029 36.0234 26.4029 35.8298 26.4029C36.0306 27.4472 36.478 28.3113 36.9684 29.2494C37.1562 29.2494 37.3441 29.2494 37.5377 29.2494C37.567 29.402 37.5964 29.5547 37.6266 29.7119C37.8738 30.5659 38.2653 31.3096 38.6763 32.0959C38.8641 32.0959 39.052 32.0959 39.2456 32.0959C39.2749 32.2485 39.3043 32.4011 39.3345 32.5584C39.5817 33.4124 39.9732 34.1561 40.3842 34.9423C40.572 34.9423 40.7599 34.9423 40.9534 34.9423C40.9828 35.095 41.0122 35.2476 41.0424 35.4049C41.2896 36.2588 41.6811 37.0026 42.092 37.7888C42.2799 37.7888 42.4678 37.7888 42.6613 37.7888C42.6933 37.9488 42.7252 38.1088 42.7581 38.2736C42.9718 39.0171 43.2909 39.609 43.6754 40.2795C43.8049 40.507 43.9344 40.7345 44.0679 40.9688C44.1673 41.1406 44.2668 41.3123 44.3692 41.4892C45.0556 40.9324 45.0556 40.9324 44.9741 39.8881C44.9623 39.571 44.9506 39.254 44.9385 38.9274C45.1264 38.9274 45.3142 38.9274 45.5078 38.9274C45.5595 38.69 45.6113 38.4526 45.6646 38.208C46.036 36.545 46.4361 34.9291 47.0022 33.3223C47.3479 32.2582 47.5921 31.1702 47.8506 30.0822C48.0508 29.3209 48.302 28.6128 48.5856 27.8795C49.0276 26.6308 48.8448 25.9084 48.3543 24.695C48.1664 24.695 47.9785 24.695 47.785 24.695C47.7967 24.4602 47.8085 24.2254 47.8206 23.9834C47.7787 22.8107 47.5273 21.8396 47.2157 20.71C47.0278 20.71 46.84 20.71 46.6464 20.71C46.6581 20.4751 46.6699 20.2403 46.682 19.9983C46.6401 18.8256 46.3887 17.8545 46.0771 16.7249C45.8892 16.7249 45.7014 16.7249 45.5078 16.7249C45.5254 16.5018 45.543 16.2787 45.5612 16.0489C45.4901 14.6754 45.0851 13.4695 44.6539 12.1705C44.5599 12.1705 44.466 12.1705 44.3692 12.1705ZM12.7734 29.8187C12.8673 30.0065 12.9612 30.1944 13.058 30.388C13.2459 30.388 13.4337 30.388 13.6273 30.388C13.6273 30.5758 13.6273 30.7637 13.6273 30.9573C13.8152 30.9573 14.003 30.9573 14.1966 30.9573C14.1966 31.1451 14.1966 31.333 14.1966 31.5266C14.3845 31.5266 14.5723 31.5266 14.7659 31.5266C14.7659 31.7144 14.7659 31.9023 14.7659 32.0959C14.9538 32.0959 15.1416 32.0959 15.3352 32.0959C15.3352 32.2837 15.3352 32.4716 15.3352 32.6651C15.5231 32.6651 15.7109 32.6651 15.9045 32.6651C15.9045 32.853 15.9045 33.0409 15.9045 33.2344C16.0923 33.2344 16.2802 33.2344 16.4738 33.2344C16.4738 33.4223 16.4738 33.6102 16.4738 33.8037C16.6616 33.8037 16.8495 33.8037 17.0431 33.8037C17.0431 33.9916 17.0431 34.1795 17.0431 34.373C17.2309 34.373 17.4188 34.373 17.6124 34.373C17.6124 34.5609 17.6124 34.7488 17.6124 34.9423C18.1342 35.5591 18.1342 35.5591 18.751 36.0809C18.9388 36.0809 19.1267 36.0809 19.3202 36.0809C19.3202 36.2688 19.3202 36.4567 19.3202 36.6502C19.7617 37.0967 19.7617 37.0967 20.3343 37.5575C21.3239 38.3947 22.2341 39.2711 23.123 40.2139C23.9826 40.9896 24.912 41.2838 26.0295 41.5215C26.2822 41.5766 26.5349 41.6317 26.7952 41.6885C27.0643 41.746 27.3334 41.8035 27.6106 41.8628C29.6753 42.316 31.7169 42.8079 33.7483 43.3928C35.5662 43.9154 37.3712 44.3437 39.2456 44.6203C38.9638 44.0567 38.9638 44.0567 38.6763 43.4818C38.4884 43.4818 38.3005 43.4818 38.107 43.4818C38.0776 43.3291 38.0483 43.1765 38.018 43.0192C37.7708 42.1652 37.3794 41.4215 36.9684 40.6353C36.7805 40.6353 36.5926 40.6353 36.3991 40.6353C36.3697 40.4826 36.3404 40.33 36.3101 40.1727C36.0629 39.3188 35.6715 38.575 35.2605 37.7888C35.0726 37.7888 34.8848 37.7888 34.6912 37.7888C34.6618 37.6362 34.6325 37.4835 34.6022 37.3263C34.3551 36.4723 33.9636 35.7285 33.5526 34.9423C33.3647 34.9423 33.1769 34.9423 32.9833 34.9423C32.954 34.7897 32.9246 34.637 32.8944 34.4798C32.6472 33.6258 32.2557 32.8821 31.8447 32.0959C31.6569 32.0959 31.469 32.0959 31.2754 32.0959C31.2754 31.7201 31.2754 31.3444 31.2754 30.9573C31.0876 30.9573 30.8997 30.9573 30.7061 30.9573C30.5652 30.3937 30.5652 30.3937 30.4215 29.8187C24.5976 29.8187 18.7737 29.8187 12.7734 29.8187Z" fill="#D3D4D8"/>
<path d="M125.778 16.1555C127.939 16.1555 130.099 16.1555 132.325 16.1555C133.286 18.3971 133.286 18.3971 133.179 19.5713C133.367 19.5713 133.555 19.5713 133.748 19.5713C133.8 19.7775 133.852 19.9837 133.905 20.1962C134.348 21.9192 134.348 21.9192 135.029 23.5563C135.704 24.9056 136.31 26.5853 136.31 28.1107C136.498 28.1107 136.686 28.1107 136.88 28.1107C136.932 27.6792 136.932 27.6792 136.986 27.239C137.159 26.1525 137.412 25.1746 137.734 24.1256C137.921 24.1256 138.109 24.1256 138.303 24.1256C138.303 23.562 138.303 22.9984 138.303 22.4178C138.491 22.4178 138.679 22.4178 138.872 22.4178C138.854 22.1771 138.837 21.9363 138.819 21.6884C138.882 20.5239 139.242 19.776 139.726 18.7173C140.008 17.8719 140.29 17.0265 140.58 16.1555C142.553 16.1555 144.525 16.1555 146.558 16.1555C146.558 17.2827 146.558 18.4099 146.558 19.5713C146.37 19.5713 146.182 19.5713 145.988 19.5713C145.937 19.7947 145.885 20.0182 145.832 20.2484C145.434 21.9092 144.964 23.4125 144.28 24.9796C144.046 25.7728 143.834 26.57 143.624 27.3702C143.403 28.199 143.142 29.0092 142.857 29.8186C142.669 29.8186 142.481 29.8186 142.288 29.8186C142.288 30.3822 142.288 30.9458 142.288 31.5265C142.1 31.5265 141.912 31.5265 141.719 31.5265C141.736 31.7202 141.754 31.9139 141.772 32.1136C141.716 32.9846 141.47 33.5877 141.106 34.3729C140.841 34.9986 140.657 35.6224 140.473 36.2765C139.592 39.2772 138.532 42.1455 136.043 44.1577C134.185 45.1437 132.555 45.268 130.493 45.2251C129.688 45.2134 128.884 45.2016 128.055 45.1895C128.055 43.3109 128.055 41.4322 128.055 39.4966C129.065 39.4595 130.075 39.4225 131.085 39.3854C132.035 39.2933 132.035 39.2933 132.601 38.7494C133.003 37.8242 132.915 37.1491 132.806 36.152C132.771 35.8188 132.737 35.4857 132.702 35.1424C132.672 34.8885 132.641 34.6346 132.61 34.3729C132.422 34.3729 132.234 34.3729 132.041 34.3729C132.041 33.8093 132.041 33.2457 132.041 32.6651C131.853 32.6651 131.665 32.6651 131.471 32.6651C130.997 31.1563 130.54 29.684 130.333 28.1107C130.145 28.1107 129.957 28.1107 129.763 28.1107C129.705 27.9085 129.647 27.7064 129.587 27.498C129.51 27.2364 129.433 26.9748 129.354 26.7053C129.278 26.4444 129.202 26.1835 129.124 25.9147C128.969 25.2812 128.969 25.2812 128.625 24.9796C128.613 24.5053 128.613 24.0306 128.625 23.5563C128.437 23.5563 128.249 23.5563 128.055 23.5563C127.997 23.3542 127.939 23.152 127.879 22.9437C127.802 22.6821 127.725 22.4205 127.646 22.1509C127.57 21.89 127.494 21.6291 127.416 21.3603C127.261 20.7269 127.261 20.7269 126.917 20.4252C126.905 19.951 126.905 19.4762 126.917 19.002C126.729 19.002 126.541 19.002 126.348 19.002C125.973 17.9716 125.778 17.2669 125.778 16.1555Z" fill="#D3D4D8"/>
<path d="M63.7251 16.1555C65.7917 16.1555 67.8582 16.1555 69.9874 16.1555C69.9915 16.6167 69.9957 17.0778 70 17.553C70.0164 19.2606 70.0384 20.9682 70.0621 22.6758C70.0716 23.4155 70.0795 24.1552 70.086 24.8949C70.0955 25.9569 70.1104 27.0187 70.1264 28.0807C70.1282 28.4125 70.13 28.7443 70.1319 29.0862C70.1375 29.3939 70.1432 29.7015 70.149 30.0185C70.1521 30.2897 70.1553 30.5609 70.1585 30.8402C70.2916 31.6449 70.4793 31.8984 71.126 32.3804C72.3456 32.6884 73.5622 32.7543 74.7908 32.4872C75.6316 31.9431 76.0061 31.5434 76.5343 30.6725C76.7111 29.5693 76.7065 28.4735 76.7077 27.3579C76.7124 27.0377 76.7171 26.7175 76.722 26.3876C76.7358 25.3668 76.7419 24.346 76.7478 23.3251C76.7558 22.6322 76.7643 21.9393 76.7733 21.2464C76.7953 19.5494 76.8068 17.8527 76.8189 16.1555C78.8855 16.1555 80.952 16.1555 83.0812 16.1555C83.0812 23.4823 83.0812 30.8092 83.0812 38.358C81.2025 38.358 79.3238 38.358 77.3882 38.358C77.2943 37.7944 77.2003 37.2308 77.1036 36.6501C76.9656 36.7668 76.8276 36.8835 76.6855 37.0037C74.8819 38.4535 73.4659 39.039 71.1438 38.8739C68.6108 38.5287 66.5531 37.8215 64.8637 35.7962C64.8637 35.5144 64.8637 35.2326 64.8637 34.9422C64.6759 34.9422 64.488 34.9422 64.2944 34.9422C63.8414 33.7413 63.6551 32.7541 63.6605 31.4727C63.6606 31.1309 63.6606 30.7891 63.6606 30.4369C63.6636 30.0722 63.6665 29.7074 63.6695 29.3316C63.6706 28.9511 63.6714 28.5706 63.672 28.1902C63.6742 27.1934 63.6797 26.1967 63.6861 25.2C63.6919 24.181 63.6945 23.1621 63.6973 22.1431C63.7034 20.1472 63.7134 18.1514 63.7251 16.1555Z" fill="#D3D4D8"/>
<path d="M100.898 16.4759C101.03 16.5581 101.163 16.6403 101.299 16.725C101.299 16.9129 101.299 17.1007 101.299 17.2943C101.674 17.4822 102.05 17.67 102.437 17.8636C102.437 18.0515 102.437 18.2393 102.437 18.4329C102.625 18.4329 102.813 18.4329 103.006 18.4329C104.574 21.1642 104.473 23.9032 104.468 27.0001C104.468 27.3176 104.468 27.6351 104.468 27.9623C104.469 28.6275 104.468 29.2928 104.467 29.958C104.465 30.9811 104.467 32.0041 104.469 33.0272C104.468 33.6749 104.468 34.3226 104.468 34.9702C104.468 35.2774 104.469 35.5845 104.469 35.901C104.468 36.3231 104.468 36.3231 104.467 36.7538C104.466 37.0025 104.466 37.2512 104.466 37.5074C104.43 38.0736 104.43 38.0736 104.145 38.3582C103.721 38.3829 103.296 38.3887 102.872 38.386C102.616 38.3851 102.36 38.3842 102.096 38.3832C101.693 38.3797 101.693 38.3797 101.281 38.376C101.011 38.3747 100.74 38.3734 100.462 38.3721C99.792 38.3687 99.1221 38.364 98.4521 38.3582C98.4505 38.1879 98.4488 38.0176 98.4471 37.8421C98.4288 36.0642 98.4048 34.2864 98.3774 32.5086C98.368 31.8457 98.36 31.1828 98.3535 30.5199C98.3439 29.5652 98.329 28.6107 98.3131 27.6561C98.3113 27.3613 98.3095 27.0665 98.3076 26.7628C98.2741 25.1015 98.1213 23.8819 97.3135 22.418C96.3544 21.5684 95.4596 21.4121 94.1813 21.4628C93.2276 21.6327 92.6293 22.082 91.9052 22.7026C91.3589 23.5742 91.2606 24.2567 91.2452 25.2769C91.2395 25.5618 91.2339 25.8467 91.2281 26.1401C91.2248 26.4456 91.2215 26.751 91.2181 27.0657C91.2126 27.38 91.2071 27.6943 91.2014 28.0181C91.1844 29.0216 91.1712 30.025 91.158 31.0285C91.1472 31.709 91.1361 32.3895 91.1247 33.07C91.0974 34.7378 91.0731 36.4057 91.0513 38.0736C89.3434 38.3582 89.3434 38.3582 84.7891 38.0736C84.7891 30.8407 84.7891 23.6078 84.7891 16.1557C86.7617 16.1557 88.7343 16.1557 90.7667 16.1557C90.8606 16.6254 90.9545 17.0951 91.0513 17.579C91.1735 17.4509 91.2957 17.3228 91.4216 17.1909C93.8646 14.8377 98.0378 14.939 100.898 16.4759Z" fill="#D3D4D8"/>
<path d="M116.655 9.29175C116.892 9.29324 117.129 9.29473 117.373 9.29627C117.604 9.29698 117.834 9.29769 118.072 9.29842C118.366 9.30101 118.661 9.3036 118.965 9.30627C119.898 9.31214 120.832 9.31801 121.793 9.32406C121.793 11.5785 121.793 13.8329 121.793 16.1556C122.92 16.1556 124.048 16.1556 125.209 16.1556C125.209 17.6585 125.209 19.1615 125.209 20.71C124.082 20.71 122.955 20.71 121.793 20.71C121.806 22.316 121.826 23.9217 121.852 25.5276C121.86 26.074 121.866 26.6204 121.87 27.1668C121.877 27.952 121.89 28.7368 121.904 29.5218C121.905 29.7664 121.905 30.0111 121.906 30.2631C121.917 31.5658 121.917 31.5658 122.534 32.6659C123.404 33.0611 123.404 33.0611 125.209 33.2344C125.209 34.8313 125.209 36.4282 125.209 38.0734C122.517 38.7463 120.283 38.2971 117.826 37.095C117.193 36.6157 116.949 36.2473 116.67 35.5116C116.482 35.5116 116.294 35.5116 116.1 35.5116C115.841 33.7527 115.778 32.0487 115.788 30.2723C115.788 29.9976 115.789 29.7228 115.789 29.4397C115.791 28.5697 115.794 27.6998 115.798 26.8299C115.799 26.2369 115.801 25.6438 115.802 25.0508C115.805 23.6039 115.81 22.1569 115.816 20.71C114.782 20.71 113.749 20.71 112.685 20.71C112.685 19.207 112.685 17.7041 112.685 16.1556C113.718 16.1556 114.751 16.1556 115.816 16.1556C115.812 15.6863 115.809 15.217 115.806 14.7335C115.803 14.1223 115.8 13.5111 115.798 12.8999C115.796 12.5901 115.793 12.2802 115.791 11.9609C115.79 11.6665 115.789 11.372 115.788 11.0686C115.786 10.7959 115.785 10.5231 115.783 10.242C115.824 9.43839 115.852 9.33853 116.655 9.29175Z" fill="#D3D4D8"/>
<path d="M106.422 16.1555C108.301 16.1555 110.18 16.1555 112.115 16.1555C112.115 23.3884 112.115 30.6213 112.115 38.0734C111.011 38.3494 110.1 38.4149 108.966 38.4292C108.617 38.4365 108.267 38.4438 107.907 38.4514C106.992 38.358 106.992 38.358 106.514 38.0518C105.936 37.2106 106.033 36.4891 106.036 35.478C106.036 35.2729 106.035 35.0678 106.034 34.8565C106.034 34.1786 106.039 33.5008 106.044 32.823C106.045 32.3526 106.046 31.8822 106.046 31.4119C106.047 30.4265 106.051 29.4412 106.058 28.4558C106.066 27.19 106.069 25.9243 106.07 24.6585C106.071 23.6876 106.074 22.7167 106.077 21.7459C106.079 21.2789 106.08 20.812 106.081 20.3451C106.083 19.6942 106.087 19.0434 106.092 18.3925C106.094 18.0215 106.096 17.6505 106.098 17.2683C106.138 16.4402 106.138 16.4402 106.422 16.1555Z" fill="#D3D4D8"/>
<path d="M106.422 9.32397C108.301 9.32397 110.18 9.32397 112.115 9.32397C112.115 11.1087 112.115 12.8935 112.115 14.7323C110.237 14.7323 108.358 14.7323 106.422 14.7323C106.001 13.8903 106.1 13.1245 106.102 12.1882C106.102 11.8334 106.101 11.4786 106.1 11.113C106.138 10.1779 106.138 10.1779 106.422 9.32397Z" fill="#D3D4D8"/>
</svg>
