<svg width="206" height="54" viewBox="0 0 206 54" fill="none" xmlns="http://www.w3.org/2000/svg">
<path d="M30.6553 0.601518C31.2638 0.583316 31.8724 0.565114 32.4993 0.546361C33.3763 0.537888 33.3763 0.537888 34.271 0.529243C34.8085 0.519593 35.3459 0.509943 35.8997 0.5C37.3199 0.784109 37.3199 0.784109 38.3955 1.87204C39.1818 3.08623 39.9598 4.2932 40.6883 5.54288C40.9478 5.98537 41.2074 6.42787 41.4748 6.88378C41.7406 7.34134 42.0064 7.7989 42.2803 8.27032C42.8043 9.16697 43.3286 10.0634 43.8532 10.9597C44.1301 11.4331 44.407 11.9065 44.6922 12.3942C45.8685 14.3909 47.0621 16.3768 48.2564 18.3628C49.6272 20.6436 50.9889 22.9296 52.3456 25.2189C52.6397 25.7151 52.6397 25.7151 52.9397 26.2213C53.7386 27.5692 54.5372 28.9173 55.3353 30.2657C55.7364 30.9433 56.1378 31.6207 56.5394 32.2979C56.9237 32.9465 57.3072 33.5955 57.6897 34.2451C58.6541 35.8761 59.6603 37.4599 60.7295 39.0235C61.8202 40.9898 62.053 41.908 61.6653 44.1189C61.0031 45.5611 60.1763 46.8516 59.2916 48.1664C59.0676 48.5144 58.8435 48.8624 58.6126 49.221C57.7455 50.5544 56.9501 51.7556 55.8224 52.8833C54.9289 53.0167 54.9289 53.0167 53.8243 53.0332C53.4059 53.0415 52.9875 53.0499 52.5564 53.0585C52.0963 53.0627 51.6362 53.0668 51.1622 53.0711C50.6784 53.0791 50.1945 53.087 49.6961 53.0952C48.0895 53.1195 46.4831 53.1355 44.8765 53.1496C44.0543 53.1573 44.0543 53.1573 43.2154 53.1653C40.3133 53.1913 37.4113 53.2102 34.5091 53.2242C31.5113 53.2404 28.5146 53.284 25.5172 53.3336C23.2127 53.3664 20.9084 53.3777 18.6036 53.3832C17.4988 53.3897 16.3939 53.4045 15.2893 53.4279C6.61806 53.6004 6.61805 53.6004 4.25987 51.815C3.38059 50.5687 2.81684 49.4282 2.2625 48.0142C1.87084 47.5422 1.47919 47.0702 1.07566 46.5839C-0.065996 44.3463 -0.262906 42.1814 0.314868 39.7368C0.960884 38.6279 1.67553 37.5896 2.41371 36.5399C3.78707 34.561 4.97332 32.4727 6.1882 30.3942C6.74419 29.4483 7.3002 28.5024 7.85624 27.5565C8.13845 27.0754 8.42066 26.5943 8.71142 26.0986C23.6327 0.680464 23.6327 0.680464 30.6553 0.601518ZM21.8549 20.7968C18.1621 25.5787 15.0542 30.8553 14.6787 37.0283C15.0497 39.6719 16.0715 41.06 18.1536 42.6886C20.0503 43.7813 21.6386 44.1591 23.7778 44.4841C24.1456 44.5429 24.5134 44.6017 24.8923 44.6622C29.3117 45.3298 33.3128 45.1875 37.7155 44.4841C38.0651 44.431 38.4147 44.3779 38.7749 44.3232C41.7336 43.7967 43.7603 42.6612 45.7799 40.3758C47.299 37.2793 46.752 34.6757 45.7495 31.4593C43.5054 25.2821 39.5762 18.9451 33.6681 15.6957C28.3561 14.3677 25.1539 16.9109 21.8549 20.7968Z" fill="#D3D4D8"/>
<path d="M188.214 11.2508C188.639 11.2459 189.065 11.2411 189.503 11.2361C190.403 11.2287 191.303 11.2252 192.204 11.2255C193.58 11.2223 194.956 11.1957 196.332 11.1681C197.207 11.1638 198.082 11.1609 198.956 11.1595C199.368 11.149 199.779 11.1385 200.203 11.1277C202.302 11.1522 203.065 11.2078 204.604 12.7345C205.303 14.4176 205.303 14.4176 205.303 18.3129C199.679 18.3129 194.056 18.3129 188.261 18.3129C188.261 20.0803 188.261 21.8478 188.261 23.6688C192.278 23.6688 196.295 23.6688 200.434 23.6688C201.01 24.8209 200.986 25.5521 200.982 26.8338C200.984 27.4137 200.984 27.4137 200.986 28.0054C200.921 29.0248 200.921 29.0248 200.434 29.9987C196.417 29.9987 192.4 29.9987 188.261 29.9987C188.261 31.7661 188.261 33.5336 188.261 35.3546C189.01 35.3508 189.01 35.3508 189.773 35.3469C191.618 35.3381 193.463 35.3325 195.308 35.3279C196.107 35.3254 196.907 35.3221 197.706 35.3179C198.853 35.312 200 35.3093 201.147 35.3071C201.507 35.3046 201.866 35.3021 202.237 35.2995C203.097 35.2994 203.957 35.3245 204.816 35.3546C205.708 36.2463 205.445 37.4736 205.51 38.6641C205.19 40.3236 204.592 41.0149 203.355 42.1714C201.835 42.5135 200.35 42.4548 198.798 42.4091C198.358 42.4057 197.918 42.4022 197.464 42.3987C196.06 42.3851 194.656 42.3545 193.252 42.3235C192.299 42.3113 191.346 42.3002 190.393 42.2902C188.059 42.2634 185.726 42.2214 183.392 42.1714C181.279 39.0035 180.599 36.5778 180.669 32.7946C180.669 32.1027 180.669 32.1027 180.669 31.3969C180.671 30.4287 180.68 29.4606 180.694 28.4925C180.714 27.0168 180.714 25.5422 180.71 24.0664C180.716 23.1211 180.722 22.1758 180.729 21.2305C180.73 20.7932 180.73 20.3559 180.73 19.9054C180.785 16.9382 181.141 14.5242 183.079 12.1466C184.52 10.9753 186.431 11.2578 188.214 11.2508Z" fill="#D3D4D8"/>
<path d="M141.488 11.0701C142.979 11.4961 142.979 11.4961 144.135 12.9568C144.578 13.7592 145.001 14.5727 145.413 15.3914C145.704 15.9644 145.995 16.5375 146.294 17.1279C146.96 18.4511 147.617 19.7782 148.272 21.1068C149.587 23.7601 150.989 26.3649 152.394 28.9716C153.007 30.1182 153.6 31.2686 154.178 32.4332C156.786 27.5709 159.343 22.7009 161.632 17.6786C162.611 15.5445 163.699 13.5205 164.89 11.4961C166.198 11.2831 166.198 11.2831 167.811 11.4961C168.934 12.4743 169.727 13.5072 170.246 14.9045C170.026 17.2217 169.302 18.969 168.25 21.0327C168.099 21.332 167.948 21.6314 167.793 21.9398C167.306 22.9035 166.813 23.8644 166.32 24.8252C165.984 25.4859 165.649 26.1468 165.314 26.8078C164.659 28.1014 164.001 29.3941 163.342 30.6862C162.603 32.1383 161.875 33.5958 161.156 35.0579C160.979 35.4167 160.803 35.7755 160.621 36.1451C160.179 37.0442 159.739 37.9435 159.298 38.8429C157.991 41.2875 157.991 41.2875 157.099 42.1713C155.764 42.4985 155.764 42.4985 154.239 42.5365C153.738 42.5641 153.237 42.5917 152.721 42.6202C150.762 42.0197 150.355 41.1148 149.389 39.3721C149.202 39.0104 149.015 38.6487 148.822 38.2761C148.644 37.9558 148.467 37.6355 148.284 37.3056C147.75 36.3371 147.234 35.3609 146.722 34.3808C146.442 33.8483 146.442 33.8483 146.155 33.305C144.705 30.5381 143.299 27.75 141.922 24.9464C140.745 22.5626 139.456 20.2618 138.077 17.9876C137.509 16.5669 137.655 15.8619 138.11 14.4176C139.516 11.6574 139.516 11.6574 141.488 11.0701Z" fill="#D3D4D8"/>
<path d="M80.24 11.4182C80.6982 11.4439 81.1564 11.4697 81.6285 11.4962C84.6369 16.8333 87.5259 22.1845 90.0733 27.7582C90.798 29.3341 91.5552 30.8867 92.3405 32.4332C93.4572 30.7581 94.3852 29.0079 95.3228 27.2294C95.5156 26.8648 95.7084 26.5002 95.907 26.1246C97.3998 23.2888 98.8465 20.4318 100.258 17.5546C101.277 15.4873 102.379 13.4883 103.539 11.4962C104.848 11.2832 104.848 11.2832 106.461 11.4962C107.584 12.4744 108.377 13.5073 108.895 14.9045C108.678 17.1185 108.046 18.7581 107.007 20.7132C106.72 21.2575 106.434 21.8019 106.139 22.3627C105.83 22.9401 105.522 23.5176 105.213 24.0949C104.744 24.9832 104.276 25.8723 103.808 26.7613C103.499 27.348 103.19 27.9344 102.88 28.5206C101.368 31.3848 99.9268 34.2811 98.4991 37.1882C97.6344 38.8848 96.7056 40.5252 95.7488 42.1714C93.66 42.1714 91.5711 42.1714 89.419 42.1714C86.6258 37.2063 83.8898 32.2491 81.5296 27.0614C80.2941 24.3604 78.8862 21.8076 77.368 19.2525C76.631 17.5251 76.5986 16.2794 76.7594 14.4176C78.1265 11.5257 78.1265 11.5257 80.24 11.4182Z" fill="#D3D4D8"/>
<path d="M123.05 11.1594C124.017 11.2201 124.978 11.3569 125.937 11.4961C127.045 13.1571 127.034 13.749 127.037 15.6996C127.04 16.2617 127.043 16.8239 127.046 17.4031C127.044 18.0102 127.042 18.6173 127.04 19.2429C127.041 19.8653 127.042 20.4878 127.043 21.1291C127.044 22.4459 127.042 23.7625 127.038 25.0792C127.032 26.7685 127.036 28.4576 127.041 30.1468C127.046 31.7566 127.043 33.3663 127.04 34.9761C127.042 35.5842 127.044 36.1923 127.046 36.8189C127.043 37.3795 127.04 37.9401 127.037 38.5177C127.036 39.2604 127.036 39.2604 127.035 40.0181C126.911 41.1975 126.911 41.1975 125.937 42.1713C124.688 42.2835 124.688 42.2835 123.229 42.2626C122.746 42.2595 122.263 42.2563 121.766 42.2531C120.581 42.1713 120.581 42.1713 120.094 41.6844C120.038 40.8484 120.017 40.0102 120.008 39.1725C120.002 38.636 119.996 38.0996 119.989 37.5469C119.986 36.9621 119.982 36.3774 119.978 35.7749C119.974 35.1773 119.97 34.5797 119.966 33.964C119.96 32.6955 119.954 31.427 119.951 30.1585C119.944 28.2199 119.921 26.2815 119.899 24.343C119.894 23.1121 119.89 21.8812 119.887 20.6503C119.878 20.0705 119.87 19.4907 119.861 18.8933C119.879 12.2185 119.879 12.2185 123.05 11.1594Z" fill="#D3D4D8"/>
</svg>
