<svg width="1440" height="170" viewBox="0 0 1440 170" fill="none" xmlns="http://www.w3.org/2000/svg">
<path d="M-39.25 -11.5L-4.75 129.5L30 -11.5H57.25L92.25 129.5L126.25 -11.5H155L108 166H77L43.75 39.25L10.5 166H-20.5L-67.5 -11.5H-39.25ZM182.148 -11.5H208.648V74.25L195.898 64.5H301.898L289.148 74.25V-11.5H315.648V166H289.148V79.25L301.898 89H195.898L208.648 79.25V166H182.148V-11.5ZM427.727 170C411.227 170 396.727 166.25 384.227 158.75C371.893 151.25 362.393 140.583 355.727 126.75C349.227 112.75 345.977 96.3333 345.977 77.5C345.977 58.5 349.227 42 355.727 28C362.393 14 371.893 3.24999 384.227 -4.25001C396.727 -11.75 411.227 -15.5 427.727 -15.5C444.393 -15.5 458.893 -11.75 471.227 -4.25001C483.727 3.24999 493.227 14 499.727 28C506.393 42 509.727 58.5 509.727 77.5C509.727 96.3333 506.393 112.75 499.727 126.75C493.227 140.583 483.727 151.25 471.227 158.75C458.893 166.25 444.393 170 427.727 170ZM427.727 145.5C439.393 145.5 449.31 142.917 457.477 137.75C465.643 132.417 471.81 124.667 475.977 114.5C480.143 104.333 482.227 92 482.227 77.5C482.227 63 480.143 50.6667 475.977 40.5C471.81 30.1667 465.643 22.3333 457.477 17C449.31 11.6667 439.393 8.99999 427.727 8.99999C416.06 8.99999 406.143 11.6667 397.977 17C389.977 22.3333 383.893 30.1667 379.727 40.5C375.56 50.6667 373.477 63 373.477 77.5C373.477 92 375.56 104.333 379.727 114.5C383.893 124.667 389.977 132.417 397.977 137.75C406.143 142.917 416.06 145.5 427.727 145.5ZM616.268 -11.5L650.768 129.5L685.518 -11.5H712.768L747.768 129.5L781.768 -11.5H810.518L763.518 166H732.518L699.268 39.25L666.018 166H635.018L588.018 -11.5H616.268ZM949.004 -11.5V13H860.504V65H946.004V89H860.504V141.5H951.004V166H834.004V-11.5H949.004ZM1095.13 -11.5H1128.38L1192.38 166H1164.38L1148.13 119.25H1075.38L1059.13 166H1031.13L1095.13 -11.5ZM1139.63 95L1111.88 13.5L1083.88 95H1139.63ZM1286.09 -11.5C1298.59 -11.5 1309.42 -9.33334 1318.59 -5C1327.76 -0.833341 1334.84 5.33333 1339.84 13.5C1345.01 21.6667 1347.59 31.25 1347.59 42.25C1347.59 49.9167 1345.84 56.9167 1342.34 63.25C1338.84 69.5833 1334.17 74.6667 1328.34 78.5C1322.67 82.1667 1316.59 84.3333 1310.09 85L1303.34 82.75C1317.34 82.75 1327.42 85.0833 1333.59 89.75C1339.76 94.4167 1343.42 102.583 1344.59 114.25L1349.34 166H1322.59L1318.34 117.5C1317.67 109.833 1314.59 104.417 1309.09 101.25C1303.76 98.0833 1295.01 96.5 1282.84 96.5H1242.34V166H1215.84V-11.5H1286.09ZM1284.59 72C1296.09 72 1304.84 69.5 1310.84 64.5C1317.01 59.5 1320.09 52.25 1320.09 42.75C1320.09 33.0833 1317.01 25.75 1310.84 20.75C1304.84 15.5833 1296.09 13 1284.59 13H1242.34V72H1284.59ZM1497.1 -11.5V13H1408.6V65H1494.1V89H1408.6V141.5H1499.1V166H1382.1V-11.5H1497.1Z" fill="white"/>
</svg>
